{
  "accessors": [
    {
      "bufferView": 1,
      "componentType": 5126,
      "count": 152,
      "max": [
        -601.67364501953125,
        107.97111511230469,
        -72.210105895996094
      ],
      "min": [
        -899.70513916015625,
        -107.87605285644531,
        -88.7945556640625
      ],
      "type": "VEC3"
    },
    {
      "bufferView": 1,
      "byteOffset": 1824,
      "componentType": 5126,
      "count": 152,
      "max": [
        0.11138428002595901,
        0.81716501712799072,
        0.99955451488494873
      ],
      "min": [
        -0.5302010178565979,
        -0.81715726852416992,
        0.56767016649246216
      ],
      "type": "VEC3"
    },
    {
      "bufferView": 2,
      "componentType": 5126,
      "count": 152,
      "max": [
        1,
        1,
        1,
        1
      ],
      "min": [
        1,
        1,
        1,
        1
      ],
      "type": "VEC4"
    },
    {
      "bufferView": 0,
      "componentType": 5125,
      "count": 570,
      "max": [
        151
      ],
      "min": [
        0
      ],
      "type": "SCALAR"
    },
    {
      "bufferView": 1,
      "byteOffset": 3648,
      "componentType": 5126,
      "count": 3689,
      "max": [
        899.562255859375,
        108.22005462646484,
        -73.19342041015625
      ],
      "min": [
        -899.70513916015625,
        -108.12799835205078,
        -191.48995971679688
      ],
      "type": "VEC3"
    },
    {
      "bufferView": 1,
      "byteOffset": 47916,
      "componentType": 5126,
      "count": 3689,
      "max": [
        0.99999624490737915,
        1,
        1
      ],
      "min": [
        -1,
        -1,
        -0.70549410581588745
      ],
      "type": "VEC3"
    },
    {
      "bufferView": 2,
      "byteOffset": 2432,
      "componentType": 5126,
      "count": 3689,
      "max": [
        1,
        1,
        1,
        1
      ],
      "min": [
        1,
        1,
        1,
        1
      ],
      "type": "VEC4"
    },
    {
      "bufferView": 0,
      "byteOffset": 2280,
      "componentType": 5125,
      "count": 16404,
      "max": [
        3688
      ],
      "min": [
        0
      ],
      "type": "SCALAR"
    },
    {
      "bufferView": 1,
      "byteOffset": 92184,
      "componentType": 5126,
      "count": 532,
      "max": [
        640.61004638671875,
        79.202949523925781,
        171.43612670898438
      ],
      "min": [
        265.8876953125,
        -79.217361450195312,
        6.7074885368347168
      ],
      "type": "VEC3"
    },
    {
      "bufferView": 1,
      "byteOffset": 98568,
      "componentType": 5126,
      "count": 532,
      "max": [
        1,
        1,
        1
      ],
      "min": [
        -1,
        -1,
        -1
      ],
      "type": "VEC3"
    },
    {
      "bufferView": 2,
      "byteOffset": 61456,
      "componentType": 5126,
      "count": 532,
      "max": [
        1,
        1,
        1,
        1
      ],
      "min": [
        1,
        1,
        1,
        1
      ],
      "type": "VEC4"
    },
    {
      "bufferView": 0,
      "byteOffset": 67896,
      "componentType": 5125,
      "count": 1608,
      "max": [
        531
      ],
      "min": [
        0
      ],
      "type": "SCALAR"
    },
    {
      "bufferView": 1,
      "byteOffset": 104952,
      "componentType": 5126,
      "count": 506,
      "max": [
        640.61004638671875,
        79.202949523925781,
        171.43612670898438
      ],
      "min": [
        265.8876953125,
        -79.217361450195312,
        6.7074885368347168
      ],
      "type": "VEC3"
    },
    {
      "bufferView": 1,
      "byteOffset": 111024,
      "componentType": 5126,
      "count": 506,
      "max": [
        1,
        1,
        1
      ],
      "min": [
        -1,
        -1,
        -0.99969494342803955
      ],
      "type": "VEC3"
    },
    {
      "bufferView": 2,
      "byteOffset": 69968,
      "componentType": 5126,
      "count": 506,
      "max": [
        1,
        1,
        1,
        1
      ],
      "min": [
        1,
        1,
        1,
        1
      ],
      "type": "VEC4"
    },
    {
      "bufferView": 0,
      "byteOffset": 74328,
      "componentType": 5125,
      "count": 1512,
      "max": [
        505
      ],
      "min": [
        0
      ],
      "type": "SCALAR"
    },
    {
      "bufferView": 1,
      "byteOffset": 117096,
      "componentType": 5126,
      "count": 4525,
      "max": [
        899.70709228515625,
        113.43767547607422,
        121.43497467041016
      ],
      "min": [
        -670.0206298828125,
        -113.37757110595703,
        -82.365989685058594
      ],
      "type": "VEC3"
    },
    {
      "bufferView": 1,
      "byteOffset": 171396,
      "componentType": 5126,
      "count": 4525,
      "max": [
        1,
        1,
        1
      ],
      "min": [
        -1,
        -1,
        -1
      ],
      "type": "VEC3"
    },
    {
      "bufferView": 2,
      "byteOffset": 78064,
      "componentType": 5126,
      "count": 4525,
      "max": [
        1,
        1,
        1,
        1
      ],
      "min": [
        1,
        1,
        1,
        1
      ],
      "type": "VEC4"
    },
    {
      "bufferView": 0,
      "byteOffset": 80376,
      "componentType": 5125,
      "count": 16296,
      "max": [
        4524
      ],
      "min": [
        0
      ],
      "type": "SCALAR"
    },
    {
      "bufferView": 1,
      "byteOffset": 225696,
      "componentType": 5126,
      "count": 6730,
      "max": [
        899.70709228515625,
        113.42922210693359,
        193.00456237792969
      ],
      "min": [
        -898.96856689453125,
        -113.41558837890625,
        -131.48146057128906
      ],
      "type": "VEC3"
    },
    {
      "bufferView": 1,
      "byteOffset": 306456,
      "componentType": 5126,
      "count": 6730,
      "max": [
        1,
        1,
        1
      ],
      "min": [
        -1,
        -1,
        -1
      ],
      "type": "VEC3"
    },
    {
      "bufferView": 2,
      "byteOffset": 150464,
      "componentType": 5126,
      "count": 6730,
      "max": [
        1,
        1,
        1,
        1
      ],
      "min": [
        1,
        1,
        1,
        1
      ],
      "type": "VEC4"
    },
    {
      "bufferView": 0,
      "byteOffset": 145560,
      "componentType": 5125,
      "count": 23232,
      "max": [
        6729
      ],
      "min": [
        0
      ],
      "type": "SCALAR"
    },
    {
      "bufferView": 1,
      "byteOffset": 387216,
      "componentType": 5126,
      "count": 22826,
      "max": [
        843.8099365234375,
        128.95692443847656,
        59.695949554443359
      ],
      "min": [
        -660.47314453125,
        -128.87983703613281,
        -145.9000244140625
      ],
      "type": "VEC3"
    },
    {
      "bufferView": 1,
      "byteOffset": 661128,
      "componentType": 5126,
      "count": 22826,
      "max": [
        1,
        1,
        1
      ],
      "min": [
        -1,
        -1,
        -1
      ],
      "type": "VEC3"
    },
    {
      "bufferView": 2,
      "byteOffset": 258144,
      "componentType": 5126,
      "count": 22826,
      "max": [
        1,
        1,
        1,
        1
      ],
      "min": [
        1,
        1,
        1,
        1
      ],
      "type": "VEC4"
    },
    {
      "bufferView": 0,
      "byteOffset": 238488,
      "componentType": 5125,
      "count": 34566,
      "max": [
        22825
      ],
      "min": [
        0
      ],
      "type": "SCALAR"
    },
    {
      "bufferView": 1,
      "byteOffset": 935040,
      "componentType": 5126,
      "count": 3386,
      "max": [
        897.94317626953125,
        113.43767547607422,
        193.00456237792969
      ],
      "min": [
        -817.09674072265625,
        -113.41558837890625,
        -193.00254821777344
      ],
      "type": "VEC3"
    },
    {
      "bufferView": 1,
      "byteOffset": 975672,
      "componentType": 5126,
      "count": 3386,
      "max": [
        1,
        1,
        1
      ],
      "min": [
        -1,
        -1,
        -1
      ],
      "type": "VEC3"
    },
    {
      "bufferView": 2,
      "byteOffset": 623360,
      "componentType": 5126,
      "count": 3386,
      "max": [
        1,
        1,
        1,
        1
      ],
      "min": [
        1,
        1,
        1,
        1
      ],
      "type": "VEC4"
    },
    {
      "bufferView": 0,
      "byteOffset": 376752,
      "componentType": 5125,
      "count": 10236,
      "max": [
        3385
      ],
      "min": [
        0
      ],
      "type": "SCALAR"
    },
    {
      "bufferView": 1,
      "byteOffset": 1016304,
      "componentType": 5126,
      "count": 1116,
      "max": [
        -75.016685485839844,
        109.26402282714844,
        145.50401306152344
      ],
      "min": [
        -184.40428161621094,
        -109.2244873046875,
        8.4484052658081055
      ],
      "type": "VEC3"
    },
    {
      "bufferView": 1,
      "byteOffset": 1029696,
      "componentType": 5126,
      "count": 1116,
      "max": [
        1,
        1,
        1
      ],
      "min": [
        -1,
        -1,
        -1
      ],
      "type": "VEC3"
    },
    {
      "bufferView": 2,
      "byteOffset": 677536,
      "componentType": 5126,
      "count": 1116,
      "max": [
        1,
        1,
        1,
        1
      ],
      "min": [
        1,
        1,
        1,
        1
      ],
      "type": "VEC4"
    },
    {
      "bufferView": 0,
      "byteOffset": 417696,
      "componentType": 5125,
      "count": 3528,
      "max": [
        1115
      ],
      "min": [
        0
      ],
      "type": "SCALAR"
    }
  ],
  "asset": {
    "extras": {
      "author": "FLOYD LEWIS (https://sketchfab.com/artoffloyd)",
      "license": "CC-BY-4.0 (http://creativecommons.org/licenses/by/4.0/)",
      "source": "https://sketchfab.com/3d-models/cruise-ship-a6a570981438437f88917d4704295c3c",
      "title": "Cruise Ship"
    },
    "generator": "Sketchfab-6.93.2",
    "version": "2.0"
  },
  "bufferViews": [
    {
      "buffer": 0,
      "byteLength": 431808,
      "byteOffset": 0,
      "name": "floatBufferViews",
      "target": 34963
    },
    {
      "buffer": 0,
      "byteLength": 1043088,
      "byteOffset": 431808,
      "byteStride": 12,
      "name": "floatBufferViews",
      "target": 34962
    },
    {
      "buffer": 0,
      "byteLength": 695392,
      "byteOffset": 1474896,
      "byteStride": 16,
      "name": "floatBufferViews",
      "target": 34962
    }
  ],
  "buffers": [
    {
      "byteLength": 2170288,
      "uri": "scene.bin"
    }
  ],
  "materials": [
    {
      "doubleSided": true,
      "emissiveFactor": [
        0,
        0,
        0
      ],
      "name": "Wood",
      "pbrMetallicRoughness": {
        "baseColorFactor": [
          0.19215699999999999,
          0.388235,
          0.67843100000000001,
          1
        ],
        "metallicFactor": 0,
        "roughnessFactor": 0.59999999999999998
      }
    },
    {
      "doubleSided": true,
      "emissiveFactor": [
        0,
        0,
        0
      ],
      "name": "Material_2",
      "pbrMetallicRoughness": {
        "baseColorFactor": [
          0.96078399999999997,
          0.96078399999999997,
          0.96078399999999997,
          1
        ],
        "metallicFactor": 0,
        "roughnessFactor": 0.59999999999999998
      }
    },
    {
      "doubleSided": true,
      "emissiveFactor": [
        0,
        0,
        0
      ],
      "name": "wood_mebel",
      "pbrMetallicRoughness": {
        "baseColorFactor": [
          0.49803900000000001,
          0.49803900000000001,
          0.49803900000000001,
          1
        ],
        "metallicFactor": 0,
        "roughnessFactor": 0.59999999999999998
      }
    },
    {
      "doubleSided": true,
      "emissiveFactor": [
        0,
        0,
        0
      ],
      "name": "3iLleather_White",
      "pbrMetallicRoughness": {
        "baseColorFactor": [
          0.75686299999999995,
          0.93725499999999995,
          0.96862700000000002,
          1
        ],
        "metallicFactor": 0,
        "roughnessFactor": 0.59999999999999998
      }
    },
    {
      "doubleSided": true,
      "emissiveFactor": [
        0,
        0,
        0
      ],
      "name": "Material_6",
      "pbrMetallicRoughness": {
        "baseColorFactor": [
          0.87058800000000003,
          0.69019600000000003,
          0.60392199999999996,
          1
        ],
        "metallicFactor": 0,
        "roughnessFactor": 0.59999999999999998
      }
    },
    {
      "doubleSided": true,
      "emissiveFactor": [
        0,
        0,
        0
      ],
      "name": "jBlack_Plastic_M",
      "pbrMetallicRoughness": {
        "baseColorFactor": [
          0,
          0,
          0,
          1
        ],
        "metallicFactor": 0,
        "roughnessFactor": 0.59999999999999998
      }
    },
    {
      "doubleSided": true,
      "emissiveFactor": [
        0,
        0,
        0
      ],
      "name": "material",
      "pbrMetallicRoughness": {
        "baseColorFactor": [
          1,
          1,
          1,
          1
        ],
        "metallicFactor": 0,
        "roughnessFactor": 0.59999999999999998
      }
    }
  ],
  "meshes": [
    {
      "primitives": [
        {
          "attributes": {
            "COLOR_0": 2,
            "NORMAL": 1,
            "POSITION": 0
          },
          "indices": 3,
          "material": 2,
          "mode": 4
        }
      ]
    },
    {
      "primitives": [
        {
          "attributes": {
            "COLOR_0": 6,
            "NORMAL": 5,
            "POSITION": 4
          },
          "indices": 7,
          "material": 3,
          "mode": 4
        }
      ]
    },
    {
      "primitives": [
        {
          "attributes": {
            "COLOR_0": 10,
            "NORMAL": 9,
            "POSITION": 8
          },
          "indices": 11,
          "material": 4,
          "mode": 4
        }
      ]
    },
    {
      "primitives": [
        {
          "attributes": {
            "COLOR_0": 14,
            "NORMAL": 13,
            "POSITION": 12
          },
          "indices": 15,
          "material": 5,
          "mode": 4
        }
      ]
    },
    {
      "primitives": [
        {
          "attributes": {
            "COLOR_0": 18,
            "NORMAL": 17,
            "POSITION": 16
          },
          "indices": 19,
          "material": 6,
          "mode": 4
        }
      ]
    },
    {
      "primitives": [
        {
          "attributes": {
            "COLOR_0": 22,
            "NORMAL": 21,
            "POSITION": 20
          },
          "indices": 23,
          "material": 0,
          "mode": 4
        }
      ]
    },
    {
      "primitives": [
        {
          "attributes": {
            "COLOR_0": 26,
            "NORMAL": 25,
            "POSITION": 24
          },
          "indices": 27,
          "material": 0,
          "mode": 4
        }
      ]
    },
    {
      "primitives": [
        {
          "attributes": {
            "COLOR_0": 30,
            "NORMAL": 29,
            "POSITION": 28
          },
          "indices": 31,
          "material": 0,
          "mode": 4
        }
      ]
    },
    {
      "primitives": [
        {
          "attributes": {
            "COLOR_0": 34,
            "NORMAL": 33,
            "POSITION": 32
          },
          "indices": 35,
          "material": 1,
          "mode": 4
        }
      ]
    }
  ],
  "nodes": [
    {
      "children": [
        1
      ],
      "name": "RootNode (gltf orientation matrix)",
      "rotation": [
        -0.70710678118654746,
        -0,
        -0,
        0.70710678118654757
      ]
    },
    {
      "children": [
        2
      ],
      "name": "RootNode (model correction matrix)"
    },
    {
      "children": [
        3,
        4,
        5,
        6,
        7,
        8,
        9,
        10,
        11
      ],
      "matrix": [
        1,
        0,
        0,
        0,
        0,
        1,
        0,
        0,
        0,
        0,
        1,
        0,
        -0.0010000000474974513,
        -0.038536621141247451,
        194.12540380854625,
        1
      ],
      "name": "3DSMeshMatrix"
    },
    {
      "mesh": 0,
      "name": ""
    },
    {
      "mesh": 1,
      "name": ""
    },
    {
      "mesh": 2,
      "name": ""
    },
    {
      "mesh": 3,
      "name": ""
    },
    {
      "mesh": 4,
      "name": ""
    },
    {
      "mesh": 5,
      "name": ""
    },
    {
      "mesh": 6,
      "name": ""
    },
    {
      "mesh": 7,
      "name": ""
    },
    {
      "mesh": 8,
      "name": ""
    }
  ],
  "scene": 0,
  "scenes": [
    {
      "name": "OSG_Scene",
      "nodes": [
        0
      ]
    }
  ]
}

